<?xml version="1.0" standalone="no"?>
<!DOCTYPE svg PUBLIC "-//W3C//DTD SVG 20010904//EN"
 "http://www.w3.org/TR/2001/REC-SVG-20010904/DTD/svg10.dtd">
<svg version="1.0" xmlns="http://www.w3.org/2000/svg"
 width="126.000000pt" height="126.000000pt" viewBox="0 0 126.000000 126.000000"
 preserveAspectRatio="xMidYMid meet">
<metadata>
Created by potrace 1.11, written by Peter Selinger 2001-2013
</metadata>
<g transform="translate(0.000000,126.000000) scale(0.100000,-0.100000)"
fill="#000000" stroke="none">
<path d="M0 630 l0 -630 630 0 630 0 0 630 0 630 -630 0 -630 0 0 -630z m696
136 c9 -22 -92 -351 -107 -351 -19 0 -18 9 36 198 45 157 58 186 71 153z
m-200 -115 l-56 -57 55 -54 c43 -42 52 -57 43 -67 -9 -12 -24 -1 -80 54 l-68
67 67 68 c53 53 70 65 80 56 11 -9 4 -22 -41 -67z m322 -128 c-54 -53 -70 -65
-80 -55 -10 10 -1 24 42 67 l54 55 -53 54 c-40 40 -52 59 -47 72 6 15 19 6 79
-54 l72 -72 -67 -67z"/>
</g>
</svg>
