<?xml version="1.0" standalone="no"?>
<!DOCTYPE svg PUBLIC "-//W3C//DTD SVG 20010904//EN"
 "http://www.w3.org/TR/2001/REC-SVG-20010904/DTD/svg10.dtd">
<svg version="1.0" xmlns="http://www.w3.org/2000/svg"
 width="406.000000pt" height="406.000000pt" viewBox="0 0 406.000000 406.000000"
 preserveAspectRatio="xMidYMid meet">
<metadata>
Created by potrace 1.11, written by Peter Selinger 2001-2013
</metadata>
<g transform="translate(0.000000,406.000000) scale(0.100000,-0.100000)"
fill="#000000" stroke="none">
<path d="M1765 3979 c-459 -48 -875 -248 -1197 -575 -160 -163 -271 -319 -369
-520 -262 -538 -262 -1166 1 -1709 229 -474 648 -841 1146 -1004 416 -137 952
-137 1368 0 499 164 915 528 1147 1005 262 537 262 1171 0 1708 -301 618 -887
1024 -1580 1095 -118 13 -398 12 -516 0z"/>
</g>
</svg>
